<mxfile host="Electron" agent="Mozilla/5.0 (Windows NT 10.0; Win64; x64) AppleWebKit/537.36 (KHTML, like Gecko) draw.io/26.2.15 Chrome/134.0.6998.205 Electron/35.2.1 Safari/537.36" version="26.2.15">
  <diagram name="第 1 页" id="aUs34Qw2HccHHOaxDjB-">
    <mxGraphModel dx="573" dy="407" grid="1" gridSize="10" guides="1" tooltips="1" connect="1" arrows="1" fold="1" page="1" pageScale="1" pageWidth="1169" pageHeight="827" math="1" shadow="0">
      <root>
        <mxCell id="0" />
        <mxCell id="1" parent="0" />
        <mxCell id="jluclIqDswGsEsu66IXl-1" value="" style="endArrow=classic;html=1;rounded=0;" parent="1" edge="1">
          <mxGeometry width="50" height="50" relative="1" as="geometry">
            <mxPoint x="80" y="200" as="sourcePoint" />
            <mxPoint x="200" y="80" as="targetPoint" />
          </mxGeometry>
        </mxCell>
        <mxCell id="jluclIqDswGsEsu66IXl-3" value="`k`" style="text;html=1;align=center;verticalAlign=middle;whiteSpace=wrap;rounded=0;" parent="1" vertex="1">
          <mxGeometry x="160" y="90" width="60" height="30" as="geometry" />
        </mxCell>
        <mxCell id="jluclIqDswGsEsu66IXl-4" value="" style="endArrow=classic;html=1;rounded=0;fillColor=#647687;strokeColor=#7298C1;" parent="1" edge="1">
          <mxGeometry width="50" height="50" relative="1" as="geometry">
            <mxPoint x="120" y="160" as="sourcePoint" />
            <mxPoint x="120" y="90" as="targetPoint" />
          </mxGeometry>
        </mxCell>
        <mxCell id="jluclIqDswGsEsu66IXl-5" value="" style="endArrow=classic;html=1;rounded=0;fillColor=#647687;strokeColor=#7298C1;" parent="1" edge="1">
          <mxGeometry width="50" height="50" relative="1" as="geometry">
            <mxPoint x="120" y="160" as="sourcePoint" />
            <mxPoint x="150" y="100" as="targetPoint" />
          </mxGeometry>
        </mxCell>
        <mxCell id="jluclIqDswGsEsu66IXl-6" value="" style="endArrow=classic;html=1;rounded=0;fillColor=#647687;strokeColor=#7298C1;" parent="1" edge="1">
          <mxGeometry width="50" height="50" relative="1" as="geometry">
            <mxPoint x="120" y="160" as="sourcePoint" />
            <mxPoint x="180" y="130" as="targetPoint" />
          </mxGeometry>
        </mxCell>
        <mxCell id="jluclIqDswGsEsu66IXl-7" value="" style="endArrow=classic;html=1;rounded=0;fillColor=#647687;strokeColor=#7298C1;" parent="1" edge="1">
          <mxGeometry width="50" height="50" relative="1" as="geometry">
            <mxPoint x="120" y="160" as="sourcePoint" />
            <mxPoint x="190" y="160" as="targetPoint" />
          </mxGeometry>
        </mxCell>
        <mxCell id="jluclIqDswGsEsu66IXl-8" value="" style="endArrow=classic;html=1;rounded=0;fillColor=#647687;strokeColor=#7298C1;" parent="1" edge="1">
          <mxGeometry width="50" height="50" relative="1" as="geometry">
            <mxPoint x="120" y="160" as="sourcePoint" />
            <mxPoint x="180" y="190" as="targetPoint" />
          </mxGeometry>
        </mxCell>
        <mxCell id="jluclIqDswGsEsu66IXl-9" value="" style="endArrow=classic;html=1;rounded=0;fillColor=#647687;strokeColor=#7298C1;" parent="1" edge="1">
          <mxGeometry width="50" height="50" relative="1" as="geometry">
            <mxPoint x="120" y="160" as="sourcePoint" />
            <mxPoint x="150" y="220" as="targetPoint" />
          </mxGeometry>
        </mxCell>
        <mxCell id="jluclIqDswGsEsu66IXl-10" value="" style="endArrow=classic;html=1;rounded=0;fillColor=#647687;strokeColor=#7298C1;" parent="1" edge="1">
          <mxGeometry width="50" height="50" relative="1" as="geometry">
            <mxPoint x="120" y="160" as="sourcePoint" />
            <mxPoint x="120" y="230" as="targetPoint" />
          </mxGeometry>
        </mxCell>
        <mxCell id="jluclIqDswGsEsu66IXl-15" value="" style="endArrow=classic;html=1;rounded=0;fillColor=#647687;strokeColor=#7298C1;" parent="1" edge="1">
          <mxGeometry width="50" height="50" relative="1" as="geometry">
            <mxPoint x="120" y="160" as="sourcePoint" />
            <mxPoint x="90" y="220" as="targetPoint" />
          </mxGeometry>
        </mxCell>
        <mxCell id="jluclIqDswGsEsu66IXl-16" value="" style="endArrow=classic;html=1;rounded=0;fillColor=#647687;strokeColor=#7298C1;" parent="1" edge="1">
          <mxGeometry width="50" height="50" relative="1" as="geometry">
            <mxPoint x="120" y="160" as="sourcePoint" />
            <mxPoint x="60" y="190" as="targetPoint" />
          </mxGeometry>
        </mxCell>
        <mxCell id="jluclIqDswGsEsu66IXl-17" value="" style="endArrow=classic;html=1;rounded=0;fillColor=#647687;strokeColor=#7298C1;" parent="1" edge="1">
          <mxGeometry width="50" height="50" relative="1" as="geometry">
            <mxPoint x="120" y="160" as="sourcePoint" />
            <mxPoint x="50" y="160" as="targetPoint" />
          </mxGeometry>
        </mxCell>
        <mxCell id="jluclIqDswGsEsu66IXl-18" value="" style="endArrow=classic;html=1;rounded=0;fillColor=#647687;strokeColor=#7298C1;" parent="1" edge="1">
          <mxGeometry width="50" height="50" relative="1" as="geometry">
            <mxPoint x="120" y="160" as="sourcePoint" />
            <mxPoint x="90" y="100" as="targetPoint" />
          </mxGeometry>
        </mxCell>
        <mxCell id="jluclIqDswGsEsu66IXl-19" value="" style="endArrow=classic;html=1;rounded=0;fillColor=#647687;strokeColor=#7298C1;" parent="1" edge="1">
          <mxGeometry width="50" height="50" relative="1" as="geometry">
            <mxPoint x="120" y="160" as="sourcePoint" />
            <mxPoint x="60" y="130" as="targetPoint" />
          </mxGeometry>
        </mxCell>
        <mxCell id="jluclIqDswGsEsu66IXl-20" value="`\mathbf{E}`" style="text;html=1;align=center;verticalAlign=middle;whiteSpace=wrap;rounded=0;" parent="1" vertex="1">
          <mxGeometry x="170" y="140" width="60" height="30" as="geometry" />
        </mxCell>
        <mxCell id="jluclIqDswGsEsu66IXl-21" value="" style="shape=waypoint;sketch=0;fillStyle=solid;size=6;pointerEvents=1;points=[];fillColor=none;resizable=0;rotatable=0;perimeter=centerPerimeter;snapToPoint=1;" parent="1" vertex="1">
          <mxGeometry x="70" y="190" width="20" height="20" as="geometry" />
        </mxCell>
        <mxCell id="jluclIqDswGsEsu66IXl-22" value="光源" style="text;html=1;align=center;verticalAlign=middle;whiteSpace=wrap;rounded=0;" parent="1" vertex="1">
          <mxGeometry x="40" y="200" width="60" height="30" as="geometry" />
        </mxCell>
        <mxCell id="jluclIqDswGsEsu66IXl-23" value="" style="whiteSpace=wrap;html=1;aspect=fixed;fillColor=none;" parent="1" vertex="1">
          <mxGeometry x="320" y="120" width="80" height="80" as="geometry" />
        </mxCell>
        <mxCell id="jluclIqDswGsEsu66IXl-24" value="" style="endArrow=classic;html=1;rounded=0;" parent="1" edge="1">
          <mxGeometry width="50" height="50" relative="1" as="geometry">
            <mxPoint x="300" y="220" as="sourcePoint" />
            <mxPoint x="420" y="100" as="targetPoint" />
          </mxGeometry>
        </mxCell>
        <mxCell id="jluclIqDswGsEsu66IXl-25" value="" style="shape=waypoint;sketch=0;fillStyle=solid;size=6;pointerEvents=1;points=[];fillColor=none;resizable=0;rotatable=0;perimeter=centerPerimeter;snapToPoint=1;" parent="1" vertex="1">
          <mxGeometry x="350" y="150" width="20" height="20" as="geometry" />
        </mxCell>
        <mxCell id="jluclIqDswGsEsu66IXl-26" value="" style="endArrow=classic;html=1;rounded=0;fillColor=#647687;strokeColor=#7298C1;" parent="1" edge="1">
          <mxGeometry width="50" height="50" relative="1" as="geometry">
            <mxPoint x="360" y="159.71" as="sourcePoint" />
            <mxPoint x="360" y="80" as="targetPoint" />
          </mxGeometry>
        </mxCell>
        <mxCell id="jluclIqDswGsEsu66IXl-27" value="`\mathbf{E}`" style="text;html=1;align=center;verticalAlign=middle;resizable=0;points=[];autosize=1;strokeColor=none;fillColor=none;" parent="1" vertex="1">
          <mxGeometry x="300" y="70" width="90" height="30" as="geometry" />
        </mxCell>
        <mxCell id="jluclIqDswGsEsu66IXl-28" value="`\mathbf{k}`" style="text;html=1;align=center;verticalAlign=middle;resizable=0;points=[];autosize=1;strokeColor=none;fillColor=none;" parent="1" vertex="1">
          <mxGeometry x="369" y="110" width="90" height="30" as="geometry" />
        </mxCell>
        <mxCell id="jluclIqDswGsEsu66IXl-29" value="" style="endArrow=classic;html=1;rounded=0;fillColor=#f0a30a;strokeColor=#BD7000;" parent="1" edge="1">
          <mxGeometry width="50" height="50" relative="1" as="geometry">
            <mxPoint x="360" y="160" as="sourcePoint" />
            <mxPoint x="430" y="160" as="targetPoint" />
          </mxGeometry>
        </mxCell>
        <mxCell id="jluclIqDswGsEsu66IXl-30" value="`\mathbf{B}`" style="text;html=1;align=center;verticalAlign=middle;resizable=0;points=[];autosize=1;strokeColor=none;fillColor=none;" parent="1" vertex="1">
          <mxGeometry x="385" y="160" width="90" height="30" as="geometry" />
        </mxCell>
        <mxCell id="jluclIqDswGsEsu66IXl-31" value="`S`" style="text;html=1;align=center;verticalAlign=middle;whiteSpace=wrap;rounded=0;" parent="1" vertex="1">
          <mxGeometry x="300" y="120" width="60" height="30" as="geometry" />
        </mxCell>
        <mxCell id="jluclIqDswGsEsu66IXl-33" value="" style="endArrow=none;html=1;rounded=0;" parent="1" edge="1">
          <mxGeometry width="50" height="50" relative="1" as="geometry">
            <mxPoint x="40" y="360" as="sourcePoint" />
            <mxPoint x="200" y="360" as="targetPoint" />
          </mxGeometry>
        </mxCell>
        <mxCell id="jluclIqDswGsEsu66IXl-34" value="" style="endArrow=classic;html=1;rounded=0;" parent="1" edge="1">
          <mxGeometry width="50" height="50" relative="1" as="geometry">
            <mxPoint x="60" y="300" as="sourcePoint" />
            <mxPoint x="120" y="360" as="targetPoint" />
          </mxGeometry>
        </mxCell>
        <mxCell id="jluclIqDswGsEsu66IXl-35" value="" style="endArrow=classic;html=1;rounded=0;" parent="1" edge="1">
          <mxGeometry width="50" height="50" relative="1" as="geometry">
            <mxPoint x="120" y="360" as="sourcePoint" />
            <mxPoint x="180" y="300" as="targetPoint" />
          </mxGeometry>
        </mxCell>
        <mxCell id="jluclIqDswGsEsu66IXl-36" value="" style="endArrow=none;dashed=1;html=1;rounded=0;" parent="1" edge="1">
          <mxGeometry width="50" height="50" relative="1" as="geometry">
            <mxPoint x="120" y="360" as="sourcePoint" />
            <mxPoint x="120" y="270" as="targetPoint" />
          </mxGeometry>
        </mxCell>
        <mxCell id="jluclIqDswGsEsu66IXl-37" value="法线" style="text;html=1;align=center;verticalAlign=middle;whiteSpace=wrap;rounded=0;" parent="1" vertex="1">
          <mxGeometry x="90" y="250" width="60" height="30" as="geometry" />
        </mxCell>
        <mxCell id="jluclIqDswGsEsu66IXl-38" value="入射光" style="text;html=1;align=center;verticalAlign=middle;whiteSpace=wrap;rounded=0;" parent="1" vertex="1">
          <mxGeometry x="30" y="270" width="60" height="30" as="geometry" />
        </mxCell>
        <mxCell id="jluclIqDswGsEsu66IXl-39" value="反射光" style="text;html=1;align=center;verticalAlign=middle;resizable=0;points=[];autosize=1;strokeColor=none;fillColor=none;" parent="1" vertex="1">
          <mxGeometry x="150" y="270" width="60" height="30" as="geometry" />
        </mxCell>
        <mxCell id="jluclIqDswGsEsu66IXl-40" value="`\alpha`" style="text;html=1;align=center;verticalAlign=middle;whiteSpace=wrap;rounded=0;" parent="1" vertex="1">
          <mxGeometry x="80" y="320" width="60" height="30" as="geometry" />
        </mxCell>
        <mxCell id="jluclIqDswGsEsu66IXl-41" value="`\beta`" style="text;html=1;align=center;verticalAlign=middle;resizable=0;points=[];autosize=1;strokeColor=none;fillColor=none;" parent="1" vertex="1">
          <mxGeometry x="100" y="320" width="60" height="30" as="geometry" />
        </mxCell>
        <mxCell id="jluclIqDswGsEsu66IXl-42" value="" style="endArrow=none;html=1;rounded=0;movable=0;resizable=0;rotatable=0;deletable=0;editable=0;locked=1;connectable=0;" parent="1" edge="1">
          <mxGeometry width="50" height="50" relative="1" as="geometry">
            <mxPoint x="280" y="360" as="sourcePoint" />
            <mxPoint x="480" y="360" as="targetPoint" />
          </mxGeometry>
        </mxCell>
        <mxCell id="jluclIqDswGsEsu66IXl-43" value="" style="endArrow=none;html=1;rounded=0;fillColor=#1ba1e2;strokeColor=#006EAF;movable=0;resizable=0;rotatable=0;deletable=0;editable=0;locked=1;connectable=0;" parent="1" edge="1">
          <mxGeometry width="50" height="50" relative="1" as="geometry">
            <mxPoint x="300" y="360" as="sourcePoint" />
            <mxPoint x="380" y="280" as="targetPoint" />
          </mxGeometry>
        </mxCell>
        <mxCell id="jluclIqDswGsEsu66IXl-47" value="波阵面" style="text;html=1;align=center;verticalAlign=middle;whiteSpace=wrap;rounded=0;fontColor=#3399FF;movable=0;resizable=0;rotatable=0;deletable=0;editable=0;locked=1;connectable=0;" parent="1" vertex="1">
          <mxGeometry x="300" y="280" width="60" height="30" as="geometry" />
        </mxCell>
        <mxCell id="jluclIqDswGsEsu66IXl-48" value="" style="shape=waypoint;sketch=0;fillStyle=solid;size=6;pointerEvents=1;points=[];fillColor=none;resizable=0;rotatable=0;perimeter=centerPerimeter;snapToPoint=1;fontColor=#7E7E7E;strokeColor=#7E7E7E;movable=0;deletable=0;editable=0;locked=1;connectable=0;" parent="1" vertex="1">
          <mxGeometry x="290" y="350" width="20" height="20" as="geometry" />
        </mxCell>
        <mxCell id="jluclIqDswGsEsu66IXl-53" value="" style="endArrow=classic;html=1;rounded=0;fillColor=#1ba1e2;strokeColor=#006EAF;dashed=1;movable=0;resizable=0;rotatable=0;deletable=0;editable=0;locked=1;connectable=0;" parent="1" edge="1">
          <mxGeometry width="50" height="50" relative="1" as="geometry">
            <mxPoint x="380" y="280" as="sourcePoint" />
            <mxPoint x="460" y="360" as="targetPoint" />
          </mxGeometry>
        </mxCell>
        <mxCell id="jluclIqDswGsEsu66IXl-54" value="" style="endArrow=classic;html=1;rounded=0;fillColor=#1ba1e2;strokeColor=#006EAF;dashed=1;movable=0;resizable=0;rotatable=0;deletable=0;editable=0;locked=1;connectable=0;" parent="1" edge="1">
          <mxGeometry width="50" height="50" relative="1" as="geometry">
            <mxPoint x="360" y="300" as="sourcePoint" />
            <mxPoint x="420" y="360" as="targetPoint" />
          </mxGeometry>
        </mxCell>
        <mxCell id="jluclIqDswGsEsu66IXl-55" value="" style="endArrow=classic;html=1;rounded=0;fillColor=#1ba1e2;strokeColor=#006EAF;dashed=1;movable=0;resizable=0;rotatable=0;deletable=0;editable=0;locked=1;connectable=0;" parent="1" edge="1">
          <mxGeometry width="50" height="50" relative="1" as="geometry">
            <mxPoint x="340" y="320" as="sourcePoint" />
            <mxPoint x="380" y="360" as="targetPoint" />
          </mxGeometry>
        </mxCell>
        <mxCell id="jluclIqDswGsEsu66IXl-56" value="" style="endArrow=classic;html=1;rounded=0;fillColor=#1ba1e2;strokeColor=#006EAF;dashed=1;movable=0;resizable=0;rotatable=0;deletable=0;editable=0;locked=1;connectable=0;" parent="1" edge="1">
          <mxGeometry width="50" height="50" relative="1" as="geometry">
            <mxPoint x="320" y="340" as="sourcePoint" />
            <mxPoint x="340" y="360" as="targetPoint" />
          </mxGeometry>
        </mxCell>
        <mxCell id="jluclIqDswGsEsu66IXl-57" value="`n_1`" style="text;html=1;align=center;verticalAlign=middle;whiteSpace=wrap;rounded=0;movable=0;resizable=0;rotatable=0;deletable=0;editable=0;locked=1;connectable=0;" parent="1" vertex="1">
          <mxGeometry x="440" y="300" width="60" height="30" as="geometry" />
        </mxCell>
        <mxCell id="jluclIqDswGsEsu66IXl-58" value="`n_2`" style="text;html=1;align=center;verticalAlign=middle;whiteSpace=wrap;rounded=0;movable=0;resizable=0;rotatable=0;deletable=0;editable=0;locked=1;connectable=0;" parent="1" vertex="1">
          <mxGeometry x="440" y="380" width="60" height="30" as="geometry" />
        </mxCell>
        <mxCell id="jluclIqDswGsEsu66IXl-59" value="`0`" style="text;html=1;align=center;verticalAlign=middle;whiteSpace=wrap;rounded=0;movable=0;resizable=0;rotatable=0;deletable=0;editable=0;locked=1;connectable=0;" parent="1" vertex="1">
          <mxGeometry x="260" y="360" width="60" height="30" as="geometry" />
        </mxCell>
        <mxCell id="jluclIqDswGsEsu66IXl-60" value="`\theta`" style="text;html=1;align=center;verticalAlign=middle;whiteSpace=wrap;rounded=0;fontColor=#3399FF;movable=0;resizable=0;rotatable=0;deletable=0;editable=0;locked=1;connectable=0;" parent="1" vertex="1">
          <mxGeometry x="286" y="338" width="60" height="30" as="geometry" />
        </mxCell>
        <mxCell id="jluclIqDswGsEsu66IXl-61" value="" style="endArrow=none;dashed=1;html=1;rounded=0;movable=0;resizable=0;rotatable=0;deletable=0;editable=0;locked=1;connectable=0;" parent="1" edge="1">
          <mxGeometry width="50" height="50" relative="1" as="geometry">
            <mxPoint x="300" y="358" as="sourcePoint" />
            <mxPoint x="300" y="268" as="targetPoint" />
          </mxGeometry>
        </mxCell>
        <mxCell id="jluclIqDswGsEsu66IXl-62" value="" style="endArrow=classic;html=1;rounded=0;fontColor=#7298C1;movable=0;resizable=0;rotatable=0;deletable=0;editable=0;locked=1;connectable=0;" parent="1" edge="1">
          <mxGeometry width="50" height="50" relative="1" as="geometry">
            <mxPoint x="240" y="300" as="sourcePoint" />
            <mxPoint x="300" y="360" as="targetPoint" />
          </mxGeometry>
        </mxCell>
        <mxCell id="jluclIqDswGsEsu66IXl-63" value="`\mathbf{k}`" style="text;html=1;align=center;verticalAlign=middle;whiteSpace=wrap;rounded=0;movable=0;resizable=0;rotatable=0;deletable=0;editable=0;locked=1;connectable=0;" parent="1" vertex="1">
          <mxGeometry x="240" y="330" width="60" height="30" as="geometry" />
        </mxCell>
        <mxCell id="jluclIqDswGsEsu66IXl-65" value="" style="whiteSpace=wrap;html=1;aspect=fixed;fillColor=none;rotation=-45;strokeColor=default;movable=0;resizable=0;rotatable=0;deletable=0;editable=0;locked=1;connectable=0;" parent="1" vertex="1">
          <mxGeometry x="295" y="348" width="10" height="10" as="geometry" />
        </mxCell>
        <mxCell id="jluclIqDswGsEsu66IXl-68" value="`x`" style="text;html=1;align=center;verticalAlign=middle;whiteSpace=wrap;rounded=0;fontColor=#3399FF;" parent="1" vertex="1">
          <mxGeometry x="330" y="338" width="60" height="30" as="geometry" />
        </mxCell>
        <mxCell id="jluclIqDswGsEsu66IXl-69" value="" style="shape=waypoint;sketch=0;fillStyle=solid;size=6;pointerEvents=1;points=[];fillColor=#1ba1e2;resizable=0;rotatable=0;perimeter=centerPerimeter;snapToPoint=1;fontColor=#ffffff;strokeColor=#006EAF;" parent="1" vertex="1">
          <mxGeometry x="369" y="350" width="20" height="20" as="geometry" />
        </mxCell>
        <mxCell id="jluclIqDswGsEsu66IXl-70" value="" style="verticalLabelPosition=bottom;verticalAlign=top;html=1;shape=mxgraph.basic.arc;startAngle=0.2517112775233312;endAngle=0.7484085036175459;fillColor=#fa6800;fontColor=#000000;strokeColor=#C73500;" parent="1" vertex="1">
          <mxGeometry x="338.5" y="320" width="81" height="80" as="geometry" />
        </mxCell>
        <mxCell id="jluclIqDswGsEsu66IXl-71" value="`t_{i}`" style="text;html=1;align=center;verticalAlign=middle;whiteSpace=wrap;rounded=0;fontColor=#3399FF;" parent="1" vertex="1">
          <mxGeometry x="340" y="320" width="60" height="30" as="geometry" />
        </mxCell>
        <mxCell id="jluclIqDswGsEsu66IXl-72" value="" style="endArrow=classic;html=1;rounded=0;fillColor=#fa6800;strokeColor=#C73500;entryX=0.768;entryY=0.917;entryDx=0;entryDy=0;entryPerimeter=0;" parent="1" target="jluclIqDswGsEsu66IXl-70" edge="1">
          <mxGeometry width="50" height="50" relative="1" as="geometry">
            <mxPoint x="380" y="360" as="sourcePoint" />
            <mxPoint x="410" y="400" as="targetPoint" />
          </mxGeometry>
        </mxCell>
        <mxCell id="jluclIqDswGsEsu66IXl-74" value="子波范围" style="text;html=1;align=center;verticalAlign=middle;whiteSpace=wrap;rounded=0;fontColor=#CC0000;" parent="1" vertex="1">
          <mxGeometry x="349" y="400" width="60" height="30" as="geometry" />
        </mxCell>
        <mxCell id="jluclIqDswGsEsu66IXl-75" value="`r_s`" style="text;html=1;align=center;verticalAlign=middle;resizable=0;points=[];autosize=1;strokeColor=none;fillColor=none;fontColor=#CC0000;" parent="1" vertex="1">
          <mxGeometry x="359" y="360" width="50" height="30" as="geometry" />
        </mxCell>
        <mxCell id="jluclIqDswGsEsu66IXl-83" value="" style="endArrow=none;html=1;rounded=0;exitX=0.633;exitY=1.013;exitDx=0;exitDy=0;exitPerimeter=0;fillColor=#fa6800;strokeColor=#C73500;" parent="1" source="jluclIqDswGsEsu66IXl-70" edge="1">
          <mxGeometry width="50" height="50" relative="1" as="geometry">
            <mxPoint x="410" y="410" as="sourcePoint" />
            <mxPoint x="460" y="360" as="targetPoint" />
          </mxGeometry>
        </mxCell>
        <mxCell id="jluclIqDswGsEsu66IXl-84" value="`x_l`" style="text;html=1;align=center;verticalAlign=middle;whiteSpace=wrap;rounded=0;" parent="1" vertex="1">
          <mxGeometry x="384" y="318" width="60" height="30" as="geometry" />
        </mxCell>
        <mxCell id="jluclIqDswGsEsu66IXl-85" value="" style="endArrow=classic;startArrow=classic;html=1;rounded=0;" parent="1" edge="1">
          <mxGeometry width="50" height="50" relative="1" as="geometry">
            <mxPoint x="380" y="350" as="sourcePoint" />
            <mxPoint x="460" y="350" as="targetPoint" />
          </mxGeometry>
        </mxCell>
        <mxCell id="jluclIqDswGsEsu66IXl-86" value="" style="endArrow=none;html=1;rounded=0;" parent="1" edge="1">
          <mxGeometry width="50" height="50" relative="1" as="geometry">
            <mxPoint x="520" y="320" as="sourcePoint" />
            <mxPoint x="680" y="320" as="targetPoint" />
          </mxGeometry>
        </mxCell>
        <mxCell id="jluclIqDswGsEsu66IXl-87" value="`n_1`" style="text;html=1;align=center;verticalAlign=middle;whiteSpace=wrap;rounded=0;movable=1;resizable=1;rotatable=1;deletable=1;editable=1;locked=0;connectable=1;" parent="1" vertex="1">
          <mxGeometry x="660" y="288" width="60" height="30" as="geometry" />
        </mxCell>
        <mxCell id="jluclIqDswGsEsu66IXl-88" value="`n_2`" style="text;html=1;align=center;verticalAlign=middle;whiteSpace=wrap;rounded=0;movable=1;resizable=1;rotatable=1;deletable=1;editable=1;locked=0;connectable=1;" parent="1" vertex="1">
          <mxGeometry x="660" y="318" width="60" height="30" as="geometry" />
        </mxCell>
        <mxCell id="jluclIqDswGsEsu66IXl-89" value="" style="endArrow=classic;html=1;rounded=0;" parent="1" edge="1">
          <mxGeometry width="50" height="50" relative="1" as="geometry">
            <mxPoint x="550" y="240" as="sourcePoint" />
            <mxPoint x="600" y="320" as="targetPoint" />
          </mxGeometry>
        </mxCell>
        <mxCell id="jluclIqDswGsEsu66IXl-90" value="" style="endArrow=none;dashed=1;html=1;rounded=0;" parent="1" edge="1">
          <mxGeometry width="50" height="50" relative="1" as="geometry">
            <mxPoint x="600" y="400" as="sourcePoint" />
            <mxPoint x="600" y="240" as="targetPoint" />
          </mxGeometry>
        </mxCell>
        <mxCell id="jluclIqDswGsEsu66IXl-91" value="" style="endArrow=classic;html=1;rounded=0;" parent="1" edge="1">
          <mxGeometry width="50" height="50" relative="1" as="geometry">
            <mxPoint x="600" y="320" as="sourcePoint" />
            <mxPoint x="660" y="360" as="targetPoint" />
          </mxGeometry>
        </mxCell>
        <mxCell id="jluclIqDswGsEsu66IXl-92" value="`\theta_1`" style="text;html=1;align=center;verticalAlign=middle;whiteSpace=wrap;rounded=0;" parent="1" vertex="1">
          <mxGeometry x="560" y="270" width="60" height="30" as="geometry" />
        </mxCell>
        <mxCell id="jluclIqDswGsEsu66IXl-93" value="`\theta_2`" style="text;html=1;align=center;verticalAlign=middle;whiteSpace=wrap;rounded=0;" parent="1" vertex="1">
          <mxGeometry x="580" y="320" width="60" height="30" as="geometry" />
        </mxCell>
        <mxCell id="jluclIqDswGsEsu66IXl-95" value="入射光" style="text;html=1;align=center;verticalAlign=middle;resizable=0;points=[];autosize=1;strokeColor=none;fillColor=none;" parent="1" vertex="1">
          <mxGeometry x="510" y="258" width="60" height="30" as="geometry" />
        </mxCell>
        <mxCell id="jluclIqDswGsEsu66IXl-96" value="折射光" style="text;html=1;align=center;verticalAlign=middle;resizable=0;points=[];autosize=1;strokeColor=none;fillColor=none;" parent="1" vertex="1">
          <mxGeometry x="600" y="350" width="60" height="30" as="geometry" />
        </mxCell>
        <mxCell id="tRef2Zapc65dE7sNV2Ql-1" value="" style="endArrow=classic;html=1;rounded=0;" parent="1" edge="1">
          <mxGeometry width="50" height="50" relative="1" as="geometry">
            <mxPoint x="80" y="480" as="sourcePoint" />
            <mxPoint x="120" y="430" as="targetPoint" />
          </mxGeometry>
        </mxCell>
        <mxCell id="tRef2Zapc65dE7sNV2Ql-2" value="" style="endArrow=classic;html=1;rounded=0;" parent="1" edge="1">
          <mxGeometry width="50" height="50" relative="1" as="geometry">
            <mxPoint x="80" y="480" as="sourcePoint" />
            <mxPoint x="170" y="480" as="targetPoint" />
          </mxGeometry>
        </mxCell>
        <mxCell id="tRef2Zapc65dE7sNV2Ql-3" value="`\mathbf{E_1}`" style="text;html=1;align=center;verticalAlign=middle;whiteSpace=wrap;rounded=0;" parent="1" vertex="1">
          <mxGeometry x="70" y="410" width="60" height="30" as="geometry" />
        </mxCell>
        <mxCell id="tRef2Zapc65dE7sNV2Ql-4" value="`\mathbf{E_2}`" style="text;html=1;align=center;verticalAlign=middle;whiteSpace=wrap;rounded=0;" parent="1" vertex="1">
          <mxGeometry x="130" y="480" width="60" height="30" as="geometry" />
        </mxCell>
        <mxCell id="tRef2Zapc65dE7sNV2Ql-5" value="" style="endArrow=none;dashed=1;html=1;rounded=0;" parent="1" edge="1">
          <mxGeometry width="50" height="50" relative="1" as="geometry">
            <mxPoint x="120" y="430" as="sourcePoint" />
            <mxPoint x="210" y="430" as="targetPoint" />
          </mxGeometry>
        </mxCell>
        <mxCell id="tRef2Zapc65dE7sNV2Ql-6" value="" style="endArrow=none;dashed=1;html=1;rounded=0;" parent="1" edge="1">
          <mxGeometry width="50" height="50" relative="1" as="geometry">
            <mxPoint x="170" y="480" as="sourcePoint" />
            <mxPoint x="210" y="430" as="targetPoint" />
          </mxGeometry>
        </mxCell>
        <mxCell id="tRef2Zapc65dE7sNV2Ql-7" value="" style="endArrow=classic;html=1;rounded=0;fillColor=#f0a30a;strokeColor=#BD7000;" parent="1" edge="1">
          <mxGeometry width="50" height="50" relative="1" as="geometry">
            <mxPoint x="80" y="480" as="sourcePoint" />
            <mxPoint x="210" y="430" as="targetPoint" />
          </mxGeometry>
        </mxCell>
        <mxCell id="tRef2Zapc65dE7sNV2Ql-9" value="`\mathbf{E}`" style="text;html=1;align=center;verticalAlign=middle;whiteSpace=wrap;rounded=0;fontColor=light-dark(#000000,#BD7000);" parent="1" vertex="1">
          <mxGeometry x="190" y="410" width="60" height="30" as="geometry" />
        </mxCell>
        <mxCell id="tRef2Zapc65dE7sNV2Ql-10" value="" style="verticalLabelPosition=bottom;verticalAlign=top;html=1;shape=mxgraph.basic.arc;startAngle=0.100211143212135;endAngle=0.2533857645420314;" parent="1" vertex="1">
          <mxGeometry x="70" y="470" width="20" height="20" as="geometry" />
        </mxCell>
        <mxCell id="tRef2Zapc65dE7sNV2Ql-11" value="`\Delta \phi`" style="text;html=1;align=center;verticalAlign=middle;whiteSpace=wrap;rounded=0;" parent="1" vertex="1">
          <mxGeometry x="60" y="480" width="60" height="30" as="geometry" />
        </mxCell>
        <mxCell id="tRef2Zapc65dE7sNV2Ql-12" value="" style="endArrow=classic;html=1;rounded=0;" parent="1" edge="1">
          <mxGeometry width="50" height="50" relative="1" as="geometry">
            <mxPoint x="80" y="600" as="sourcePoint" />
            <mxPoint x="130" y="600" as="targetPoint" />
          </mxGeometry>
        </mxCell>
        <mxCell id="tRef2Zapc65dE7sNV2Ql-13" value="" style="endArrow=classic;html=1;rounded=0;" parent="1" edge="1">
          <mxGeometry width="50" height="50" relative="1" as="geometry">
            <mxPoint x="80" y="590" as="sourcePoint" />
            <mxPoint x="150" y="590" as="targetPoint" />
          </mxGeometry>
        </mxCell>
        <mxCell id="tRef2Zapc65dE7sNV2Ql-14" value="" style="endArrow=classic;html=1;rounded=0;fillColor=#f0a30a;strokeColor=#BD7000;" parent="1" edge="1">
          <mxGeometry width="50" height="50" relative="1" as="geometry">
            <mxPoint x="80" y="580" as="sourcePoint" />
            <mxPoint x="200" y="580" as="targetPoint" />
          </mxGeometry>
        </mxCell>
        <mxCell id="tRef2Zapc65dE7sNV2Ql-15" value="`\mathbf{E_1}`" style="text;html=1;align=center;verticalAlign=middle;whiteSpace=wrap;rounded=0;" parent="1" vertex="1">
          <mxGeometry x="50" y="600" width="30" height="10" as="geometry" />
        </mxCell>
        <mxCell id="tRef2Zapc65dE7sNV2Ql-16" value="`\mathbf{E_2}`" style="text;html=1;align=center;verticalAlign=middle;whiteSpace=wrap;rounded=0;" parent="1" vertex="1">
          <mxGeometry x="50" y="585" width="30" height="10" as="geometry" />
        </mxCell>
        <mxCell id="tRef2Zapc65dE7sNV2Ql-18" value="`\mathbf{E}`" style="text;html=1;align=center;verticalAlign=middle;whiteSpace=wrap;rounded=0;fontColor=light-dark(#000000,#BD7000);" parent="1" vertex="1">
          <mxGeometry x="50" y="570" width="30" height="10" as="geometry" />
        </mxCell>
        <mxCell id="tRef2Zapc65dE7sNV2Ql-19" value="" style="endArrow=classic;html=1;rounded=0;" parent="1" edge="1">
          <mxGeometry width="50" height="50" relative="1" as="geometry">
            <mxPoint x="80" y="720" as="sourcePoint" />
            <mxPoint x="80" y="650" as="targetPoint" />
          </mxGeometry>
        </mxCell>
        <mxCell id="tRef2Zapc65dE7sNV2Ql-20" value="" style="endArrow=classic;html=1;rounded=0;" parent="1" edge="1">
          <mxGeometry width="50" height="50" relative="1" as="geometry">
            <mxPoint x="80" y="720" as="sourcePoint" />
            <mxPoint x="130" y="720" as="targetPoint" />
          </mxGeometry>
        </mxCell>
        <mxCell id="tRef2Zapc65dE7sNV2Ql-21" value="" style="endArrow=classic;html=1;rounded=0;fillColor=#f0a30a;strokeColor=#BD7000;" parent="1" edge="1">
          <mxGeometry width="50" height="50" relative="1" as="geometry">
            <mxPoint x="80" y="720" as="sourcePoint" />
            <mxPoint x="130" y="650" as="targetPoint" />
          </mxGeometry>
        </mxCell>
        <mxCell id="tRef2Zapc65dE7sNV2Ql-22" value="`\mathbf{E}`" style="text;html=1;align=center;verticalAlign=middle;whiteSpace=wrap;rounded=0;fontColor=light-dark(#000000,#BD7000);" parent="1" vertex="1">
          <mxGeometry x="130" y="640" width="30" height="10" as="geometry" />
        </mxCell>
        <mxCell id="tRef2Zapc65dE7sNV2Ql-23" value="`\mathbf{E_2}`" style="text;html=1;align=center;verticalAlign=middle;whiteSpace=wrap;rounded=0;" parent="1" vertex="1">
          <mxGeometry x="120" y="730" width="30" height="10" as="geometry" />
        </mxCell>
        <mxCell id="tRef2Zapc65dE7sNV2Ql-24" value="`\mathbf{E_1}`" style="text;html=1;align=center;verticalAlign=middle;whiteSpace=wrap;rounded=0;" parent="1" vertex="1">
          <mxGeometry x="55" y="640" width="30" height="10" as="geometry" />
        </mxCell>
        <mxCell id="tRef2Zapc65dE7sNV2Ql-25" value="" style="endArrow=none;dashed=1;html=1;rounded=0;entryX=0;entryY=1;entryDx=0;entryDy=0;" parent="1" target="tRef2Zapc65dE7sNV2Ql-22" edge="1">
          <mxGeometry width="50" height="50" relative="1" as="geometry">
            <mxPoint x="80" y="650" as="sourcePoint" />
            <mxPoint x="130" y="600" as="targetPoint" />
          </mxGeometry>
        </mxCell>
        <mxCell id="tRef2Zapc65dE7sNV2Ql-26" value="" style="endArrow=none;dashed=1;html=1;rounded=0;" parent="1" edge="1">
          <mxGeometry width="50" height="50" relative="1" as="geometry">
            <mxPoint x="130" y="720" as="sourcePoint" />
            <mxPoint x="130" y="650" as="targetPoint" />
          </mxGeometry>
        </mxCell>
        <mxCell id="tRef2Zapc65dE7sNV2Ql-27" value="" style="endArrow=classic;html=1;rounded=0;" parent="1" edge="1">
          <mxGeometry width="50" height="50" relative="1" as="geometry">
            <mxPoint x="320" y="600" as="sourcePoint" />
            <mxPoint x="370" y="570" as="targetPoint" />
          </mxGeometry>
        </mxCell>
        <mxCell id="tRef2Zapc65dE7sNV2Ql-28" value="" style="endArrow=classic;html=1;rounded=0;" parent="1" edge="1">
          <mxGeometry width="50" height="50" relative="1" as="geometry">
            <mxPoint x="320" y="600" as="sourcePoint" />
            <mxPoint x="270" y="560" as="targetPoint" />
          </mxGeometry>
        </mxCell>
        <mxCell id="tRef2Zapc65dE7sNV2Ql-30" value="" style="verticalLabelPosition=bottom;verticalAlign=top;html=1;shape=mxgraph.basic.arc;startAngle=0.1677991767795612;endAngle=0.25370061070519345;" parent="1" vertex="1">
          <mxGeometry x="310" y="590" width="20" height="20" as="geometry" />
        </mxCell>
        <mxCell id="tRef2Zapc65dE7sNV2Ql-33" value="" style="verticalLabelPosition=bottom;verticalAlign=top;html=1;shape=mxgraph.basic.arc;startAngle=0.8576276868224543;endAngle=0.25159149638245415;" parent="1" vertex="1">
          <mxGeometry x="305" y="585" width="30" height="30" as="geometry" />
        </mxCell>
        <mxCell id="tRef2Zapc65dE7sNV2Ql-34" value="" style="endArrow=classic;html=1;rounded=0;" parent="1" edge="1">
          <mxGeometry width="50" height="50" relative="1" as="geometry">
            <mxPoint x="240" y="600" as="sourcePoint" />
            <mxPoint x="400" y="600" as="targetPoint" />
          </mxGeometry>
        </mxCell>
        <mxCell id="tRef2Zapc65dE7sNV2Ql-35" value="&lt;font style=&quot;font-size: 7px;&quot;&gt;`\phi_1`&lt;/font&gt;" style="text;html=1;align=center;verticalAlign=middle;whiteSpace=wrap;rounded=0;" parent="1" vertex="1">
          <mxGeometry x="332.5" y="590" width="25" height="5" as="geometry" />
        </mxCell>
        <mxCell id="tRef2Zapc65dE7sNV2Ql-36" value="&lt;font style=&quot;font-size: 7px;&quot;&gt;`\phi_2`&lt;/font&gt;" style="text;html=1;align=center;verticalAlign=middle;whiteSpace=wrap;rounded=0;" parent="1" vertex="1">
          <mxGeometry x="317.5" y="575" width="25" height="5" as="geometry" />
        </mxCell>
        <mxCell id="tRef2Zapc65dE7sNV2Ql-41" value="" style="verticalLabelPosition=bottom;verticalAlign=top;html=1;shape=mxgraph.basic.arc;startAngle=0.009537862117918117;endAngle=0.11578394119906989;" parent="1" vertex="1">
          <mxGeometry x="245" y="510" width="150" height="150" as="geometry" />
        </mxCell>
        <mxCell id="tRef2Zapc65dE7sNV2Ql-43" value="" style="endArrow=classic;html=1;rounded=0;" parent="1" edge="1">
          <mxGeometry width="50" height="50" relative="1" as="geometry">
            <mxPoint x="326" y="509.6" as="sourcePoint" />
            <mxPoint x="320" y="509.6" as="targetPoint" />
          </mxGeometry>
        </mxCell>
        <mxCell id="tRef2Zapc65dE7sNV2Ql-45" value="&lt;font style=&quot;font-size: 7px;&quot;&gt;`\omega`&lt;/font&gt;" style="text;html=1;align=center;verticalAlign=middle;whiteSpace=wrap;rounded=0;" parent="1" vertex="1">
          <mxGeometry x="340" y="504.6" width="25" height="5" as="geometry" />
        </mxCell>
        <mxCell id="tRef2Zapc65dE7sNV2Ql-48" value="" style="endArrow=none;dashed=1;html=1;rounded=0;" parent="1" edge="1">
          <mxGeometry width="50" height="50" relative="1" as="geometry">
            <mxPoint x="320" y="530" as="sourcePoint" />
            <mxPoint x="270" y="560" as="targetPoint" />
          </mxGeometry>
        </mxCell>
        <mxCell id="tRef2Zapc65dE7sNV2Ql-49" value="" style="endArrow=none;dashed=1;html=1;rounded=0;" parent="1" edge="1">
          <mxGeometry width="50" height="50" relative="1" as="geometry">
            <mxPoint x="369" y="570" as="sourcePoint" />
            <mxPoint x="323" y="530" as="targetPoint" />
          </mxGeometry>
        </mxCell>
        <mxCell id="tRef2Zapc65dE7sNV2Ql-50" value="" style="endArrow=classic;html=1;rounded=0;fillColor=#f0a30a;strokeColor=#BD7000;" parent="1" edge="1">
          <mxGeometry width="50" height="50" relative="1" as="geometry">
            <mxPoint x="320" y="600" as="sourcePoint" />
            <mxPoint x="320" y="530" as="targetPoint" />
          </mxGeometry>
        </mxCell>
        <mxCell id="tRef2Zapc65dE7sNV2Ql-51" value="&lt;font style=&quot;font-size: 7px;&quot;&gt;`\mathbf{E_1}`&lt;/font&gt;" style="text;html=1;align=center;verticalAlign=middle;whiteSpace=wrap;rounded=0;" parent="1" vertex="1">
          <mxGeometry x="366.5" y="570" width="25" height="5" as="geometry" />
        </mxCell>
        <mxCell id="tRef2Zapc65dE7sNV2Ql-53" value="&lt;font style=&quot;font-size: 7px;&quot;&gt;`\mathbf{E_2}`&lt;/font&gt;" style="text;html=1;align=center;verticalAlign=middle;whiteSpace=wrap;rounded=0;" parent="1" vertex="1">
          <mxGeometry x="250" y="550" width="25" height="5" as="geometry" />
        </mxCell>
        <mxCell id="tRef2Zapc65dE7sNV2Ql-54" value="&lt;font style=&quot;font-size: 7px;&quot;&gt;`\mathbf{E}`&lt;/font&gt;" style="text;html=1;align=center;verticalAlign=middle;whiteSpace=wrap;rounded=0;" parent="1" vertex="1">
          <mxGeometry x="300" y="520" width="25" height="5" as="geometry" />
        </mxCell>
        <mxCell id="T8nIQDWOFrZM4rva00Im-1" value="" style="endArrow=none;html=1;rounded=0;" parent="1" edge="1">
          <mxGeometry width="50" height="50" relative="1" as="geometry">
            <mxPoint x="520" y="530" as="sourcePoint" />
            <mxPoint x="520" y="440" as="targetPoint" />
          </mxGeometry>
        </mxCell>
        <mxCell id="T8nIQDWOFrZM4rva00Im-2" value="" style="endArrow=none;html=1;rounded=0;" parent="1" edge="1">
          <mxGeometry width="50" height="50" relative="1" as="geometry">
            <mxPoint x="520" y="630" as="sourcePoint" />
            <mxPoint x="520" y="550" as="targetPoint" />
          </mxGeometry>
        </mxCell>
        <mxCell id="T8nIQDWOFrZM4rva00Im-3" value="" style="endArrow=none;html=1;rounded=0;" parent="1" edge="1">
          <mxGeometry width="50" height="50" relative="1" as="geometry">
            <mxPoint x="640" y="620" as="sourcePoint" />
            <mxPoint x="640" y="450" as="targetPoint" />
          </mxGeometry>
        </mxCell>
        <mxCell id="T8nIQDWOFrZM4rva00Im-4" value="" style="endArrow=classic;html=1;rounded=0;" parent="1" edge="1">
          <mxGeometry width="50" height="50" relative="1" as="geometry">
            <mxPoint x="440" y="480" as="sourcePoint" />
            <mxPoint x="510" y="480" as="targetPoint" />
          </mxGeometry>
        </mxCell>
        <mxCell id="T8nIQDWOFrZM4rva00Im-5" value="" style="endArrow=classic;html=1;rounded=0;" parent="1" edge="1">
          <mxGeometry width="50" height="50" relative="1" as="geometry">
            <mxPoint x="440" y="508.91" as="sourcePoint" />
            <mxPoint x="510" y="508.91" as="targetPoint" />
          </mxGeometry>
        </mxCell>
        <mxCell id="T8nIQDWOFrZM4rva00Im-6" value="" style="endArrow=classic;html=1;rounded=0;" parent="1" edge="1">
          <mxGeometry width="50" height="50" relative="1" as="geometry">
            <mxPoint x="440" y="540" as="sourcePoint" />
            <mxPoint x="510" y="540" as="targetPoint" />
          </mxGeometry>
        </mxCell>
        <mxCell id="T8nIQDWOFrZM4rva00Im-7" value="" style="endArrow=classic;html=1;rounded=0;" parent="1" edge="1">
          <mxGeometry width="50" height="50" relative="1" as="geometry">
            <mxPoint x="440" y="572.16" as="sourcePoint" />
            <mxPoint x="510" y="572.16" as="targetPoint" />
          </mxGeometry>
        </mxCell>
        <mxCell id="T8nIQDWOFrZM4rva00Im-8" value="" style="endArrow=classic;html=1;rounded=0;" parent="1" edge="1">
          <mxGeometry width="50" height="50" relative="1" as="geometry">
            <mxPoint x="440" y="599.66" as="sourcePoint" />
            <mxPoint x="510" y="599.66" as="targetPoint" />
          </mxGeometry>
        </mxCell>
        <mxCell id="T8nIQDWOFrZM4rva00Im-9" value="" style="verticalLabelPosition=bottom;verticalAlign=top;html=1;shape=mxgraph.basic.arc;startAngle=0.0031826745504863986;endAngle=0.4984085036175459;" parent="1" vertex="1">
          <mxGeometry x="470" y="485" width="100" height="100" as="geometry" />
        </mxCell>
        <mxCell id="T8nIQDWOFrZM4rva00Im-10" value="" style="verticalLabelPosition=bottom;verticalAlign=top;html=1;shape=mxgraph.basic.arc;startAngle=0.0031826745504863986;endAngle=0.4984085036175459;" parent="1" vertex="1">
          <mxGeometry x="485" y="502.5" width="70" height="65" as="geometry" />
        </mxCell>
        <mxCell id="T8nIQDWOFrZM4rva00Im-11" value="" style="verticalLabelPosition=bottom;verticalAlign=top;html=1;shape=mxgraph.basic.arc;startAngle=0.0031826745504863986;endAngle=0.4984085036175459;" parent="1" vertex="1">
          <mxGeometry x="455" y="467.5" width="130" height="135" as="geometry" />
        </mxCell>
        <mxCell id="T8nIQDWOFrZM4rva00Im-12" value="" style="endArrow=classic;html=1;rounded=0;" parent="1" edge="1">
          <mxGeometry width="50" height="50" relative="1" as="geometry">
            <mxPoint x="520" y="540" as="sourcePoint" />
            <mxPoint x="570" y="490" as="targetPoint" />
          </mxGeometry>
        </mxCell>
        <mxCell id="T8nIQDWOFrZM4rva00Im-13" value="" style="endArrow=classic;startArrow=classic;html=1;rounded=0;" parent="1" edge="1">
          <mxGeometry width="50" height="50" relative="1" as="geometry">
            <mxPoint x="520" y="640" as="sourcePoint" />
            <mxPoint x="640" y="640" as="targetPoint" />
          </mxGeometry>
        </mxCell>
        <mxCell id="T8nIQDWOFrZM4rva00Im-14" value="`r_0`" style="text;html=1;align=center;verticalAlign=middle;resizable=0;points=[];autosize=1;strokeColor=none;fillColor=none;" parent="1" vertex="1">
          <mxGeometry x="555" y="615" width="50" height="30" as="geometry" />
        </mxCell>
        <mxCell id="T8nIQDWOFrZM4rva00Im-15" value="" style="endArrow=classic;startArrow=classic;html=1;rounded=0;" parent="1" edge="1">
          <mxGeometry width="50" height="50" relative="1" as="geometry">
            <mxPoint x="600" y="550" as="sourcePoint" />
            <mxPoint x="600" y="530" as="targetPoint" />
          </mxGeometry>
        </mxCell>
        <mxCell id="T8nIQDWOFrZM4rva00Im-16" value="`a`" style="text;html=1;align=center;verticalAlign=middle;whiteSpace=wrap;rounded=0;" parent="1" vertex="1">
          <mxGeometry x="580" y="525" width="60" height="30" as="geometry" />
        </mxCell>
        <mxCell id="T8nIQDWOFrZM4rva00Im-17" value="" style="endArrow=none;dashed=1;html=1;rounded=0;" parent="1" edge="1">
          <mxGeometry width="50" height="50" relative="1" as="geometry">
            <mxPoint x="520" y="529" as="sourcePoint" />
            <mxPoint x="601" y="529" as="targetPoint" />
          </mxGeometry>
        </mxCell>
        <mxCell id="T8nIQDWOFrZM4rva00Im-18" value="" style="endArrow=none;dashed=1;html=1;rounded=0;" parent="1" edge="1">
          <mxGeometry width="50" height="50" relative="1" as="geometry">
            <mxPoint x="519" y="550" as="sourcePoint" />
            <mxPoint x="600" y="550" as="targetPoint" />
          </mxGeometry>
        </mxCell>
        <mxCell id="T8nIQDWOFrZM4rva00Im-19" value="`\lambda`" style="text;html=1;align=center;verticalAlign=middle;whiteSpace=wrap;rounded=0;" parent="1" vertex="1">
          <mxGeometry x="450" y="450" width="60" height="30" as="geometry" />
        </mxCell>
        <mxCell id="T8nIQDWOFrZM4rva00Im-20" value="" style="endArrow=none;html=1;rounded=0;" parent="1" edge="1">
          <mxGeometry width="50" height="50" relative="1" as="geometry">
            <mxPoint x="800" y="600" as="sourcePoint" />
            <mxPoint x="800" y="460" as="targetPoint" />
          </mxGeometry>
        </mxCell>
        <mxCell id="T8nIQDWOFrZM4rva00Im-21" value="" style="endArrow=none;html=1;rounded=0;" parent="1" edge="1">
          <mxGeometry width="50" height="50" relative="1" as="geometry">
            <mxPoint x="700" y="520" as="sourcePoint" />
            <mxPoint x="700" y="460" as="targetPoint" />
          </mxGeometry>
        </mxCell>
        <mxCell id="T8nIQDWOFrZM4rva00Im-22" value="" style="endArrow=none;html=1;rounded=0;" parent="1" edge="1">
          <mxGeometry width="50" height="50" relative="1" as="geometry">
            <mxPoint x="700" y="600" as="sourcePoint" />
            <mxPoint x="700" y="540" as="targetPoint" />
          </mxGeometry>
        </mxCell>
        <mxCell id="T8nIQDWOFrZM4rva00Im-23" value="" style="endArrow=classic;html=1;rounded=0;fillColor=#fad7ac;strokeColor=#b46504;" parent="1" edge="1">
          <mxGeometry width="50" height="50" relative="1" as="geometry">
            <mxPoint x="700" y="530" as="sourcePoint" />
            <mxPoint x="800" y="550" as="targetPoint" />
          </mxGeometry>
        </mxCell>
        <mxCell id="T8nIQDWOFrZM4rva00Im-24" value="" style="endArrow=none;dashed=1;html=1;rounded=0;" parent="1" edge="1">
          <mxGeometry width="50" height="50" relative="1" as="geometry">
            <mxPoint x="680" y="530" as="sourcePoint" />
            <mxPoint x="820" y="530" as="targetPoint" />
          </mxGeometry>
        </mxCell>
        <mxCell id="T8nIQDWOFrZM4rva00Im-26" value="" style="endArrow=classic;html=1;rounded=0;startSize=1;endSize=1;fillColor=#b1ddf0;strokeColor=#10739e;" parent="1" edge="1">
          <mxGeometry width="50" height="50" relative="1" as="geometry">
            <mxPoint x="700" y="530" as="sourcePoint" />
            <mxPoint x="700" y="540" as="targetPoint" />
          </mxGeometry>
        </mxCell>
        <mxCell id="T8nIQDWOFrZM4rva00Im-27" value="&lt;font style=&quot;font-size: 8px;&quot;&gt;`\xi`&lt;/font&gt;" style="text;html=1;align=center;verticalAlign=middle;whiteSpace=wrap;rounded=0;" parent="1" vertex="1">
          <mxGeometry x="670" y="535" width="40" height="15" as="geometry" />
        </mxCell>
        <mxCell id="T8nIQDWOFrZM4rva00Im-29" value="&lt;font style=&quot;font-size: 8px;&quot;&gt;`s`&lt;/font&gt;" style="text;html=1;align=center;verticalAlign=middle;whiteSpace=wrap;rounded=0;" parent="1" vertex="1">
          <mxGeometry x="700" y="520" width="20" height="10" as="geometry" />
        </mxCell>
        <mxCell id="T8nIQDWOFrZM4rva00Im-30" value="&lt;font style=&quot;font-size: 8px;&quot;&gt;`\theta`&lt;/font&gt;" style="text;html=1;align=center;verticalAlign=middle;whiteSpace=wrap;rounded=0;" parent="1" vertex="1">
          <mxGeometry x="740" y="530" width="30" height="10" as="geometry" />
        </mxCell>
        <mxCell id="T8nIQDWOFrZM4rva00Im-31" value="&lt;font style=&quot;font-size: 8px;&quot;&gt;`P`&lt;/font&gt;" style="text;html=1;align=center;verticalAlign=middle;whiteSpace=wrap;rounded=0;" parent="1" vertex="1">
          <mxGeometry x="760" y="545" width="60" height="30" as="geometry" />
        </mxCell>
        <mxCell id="T8nIQDWOFrZM4rva00Im-32" value="" style="endArrow=classic;html=1;rounded=0;fillColor=#fad9d5;strokeColor=#ae4132;" parent="1" edge="1">
          <mxGeometry width="50" height="50" relative="1" as="geometry">
            <mxPoint x="700" y="540" as="sourcePoint" />
            <mxPoint x="800" y="550" as="targetPoint" />
          </mxGeometry>
        </mxCell>
        <mxCell id="T8nIQDWOFrZM4rva00Im-33" value="&lt;font style=&quot;font-size: 8px;&quot;&gt;`r`&lt;/font&gt;" style="text;html=1;align=center;verticalAlign=middle;resizable=0;points=[];autosize=1;strokeColor=none;fillColor=none;" parent="1" vertex="1">
          <mxGeometry x="710" y="530" width="30" height="30" as="geometry" />
        </mxCell>
        <mxCell id="T8nIQDWOFrZM4rva00Im-34" value="&lt;font style=&quot;font-size: 8px;&quot;&gt;`r_0`&lt;/font&gt;" style="text;html=1;align=center;verticalAlign=middle;resizable=0;points=[];autosize=1;strokeColor=none;fillColor=none;" parent="1" vertex="1">
          <mxGeometry x="705" y="520" width="40" height="30" as="geometry" />
        </mxCell>
        <mxCell id="QagdiJctDa_fPFoG9Wk_-5" value="" style="html=1;whiteSpace=wrap;aspect=fixed;shape=isoRectangle;fillColor=none;" parent="1" vertex="1">
          <mxGeometry x="240" y="770" width="120" height="72" as="geometry" />
        </mxCell>
        <mxCell id="QagdiJctDa_fPFoG9Wk_-6" value="" style="html=1;whiteSpace=wrap;aspect=fixed;shape=isoRectangle;fillColor=none;" parent="1" vertex="1">
          <mxGeometry x="240" y="650" width="120" height="70" as="geometry" />
        </mxCell>
        <mxCell id="QagdiJctDa_fPFoG9Wk_-7" value="" style="ellipse;whiteSpace=wrap;html=1;fillColor=none;" parent="1" vertex="1">
          <mxGeometry x="275" y="791" width="50" height="30" as="geometry" />
        </mxCell>
        <mxCell id="QagdiJctDa_fPFoG9Wk_-8" value="" style="endArrow=classic;html=1;rounded=0;entryX=1;entryY=0;entryDx=0;entryDy=0;" parent="1" target="QagdiJctDa_fPFoG9Wk_-7" edge="1">
          <mxGeometry width="50" height="50" relative="1" as="geometry">
            <mxPoint x="299" y="807" as="sourcePoint" />
            <mxPoint x="349" y="787" as="targetPoint" />
          </mxGeometry>
        </mxCell>
        <mxCell id="QagdiJctDa_fPFoG9Wk_-9" value="`a`" style="text;html=1;align=center;verticalAlign=middle;whiteSpace=wrap;rounded=0;" parent="1" vertex="1">
          <mxGeometry x="286" y="791" width="60" height="30" as="geometry" />
        </mxCell>
        <mxCell id="QagdiJctDa_fPFoG9Wk_-10" value="" style="endArrow=classic;html=1;rounded=0;entryX=0;entryY=0.25;entryDx=0;entryDy=0;fillColor=#1ba1e2;strokeColor=#006EAF;" parent="1" target="QagdiJctDa_fPFoG9Wk_-9" edge="1">
          <mxGeometry width="50" height="50" relative="1" as="geometry">
            <mxPoint x="299" y="806" as="sourcePoint" />
            <mxPoint x="349" y="756" as="targetPoint" />
          </mxGeometry>
        </mxCell>
        <mxCell id="QagdiJctDa_fPFoG9Wk_-11" value="`\mathbf{\rho}`" style="text;html=1;align=center;verticalAlign=middle;whiteSpace=wrap;rounded=0;" parent="1" vertex="1">
          <mxGeometry x="257.5" y="791" width="60" height="30" as="geometry" />
        </mxCell>
        <mxCell id="QagdiJctDa_fPFoG9Wk_-12" value="" style="endArrow=classic;html=1;rounded=0;entryX=0.688;entryY=0.625;entryDx=0;entryDy=0;entryPerimeter=0;fillColor=#f0a30a;strokeColor=#BD7000;" parent="1" target="QagdiJctDa_fPFoG9Wk_-6" edge="1">
          <mxGeometry width="50" height="50" relative="1" as="geometry">
            <mxPoint x="299" y="807" as="sourcePoint" />
            <mxPoint x="349" y="757" as="targetPoint" />
          </mxGeometry>
        </mxCell>
        <mxCell id="QagdiJctDa_fPFoG9Wk_-13" value="`\mathbf{s}`" style="text;html=1;align=center;verticalAlign=middle;whiteSpace=wrap;rounded=0;" parent="1" vertex="1">
          <mxGeometry x="290" y="720" width="60" height="30" as="geometry" />
        </mxCell>
        <mxCell id="QagdiJctDa_fPFoG9Wk_-14" value="" style="endArrow=none;dashed=1;html=1;rounded=0;" parent="1" edge="1">
          <mxGeometry width="50" height="50" relative="1" as="geometry">
            <mxPoint x="299.15999999999997" y="850" as="sourcePoint" />
            <mxPoint x="299.15999999999997" y="630" as="targetPoint" />
          </mxGeometry>
        </mxCell>
        <mxCell id="QagdiJctDa_fPFoG9Wk_-15" value="`theta`" style="text;html=1;align=center;verticalAlign=middle;whiteSpace=wrap;rounded=0;" parent="1" vertex="1">
          <mxGeometry x="275" y="740" width="60" height="30" as="geometry" />
        </mxCell>
        <mxCell id="QagdiJctDa_fPFoG9Wk_-16" value="" style="ellipse;whiteSpace=wrap;html=1;fillColor=none;" parent="1" vertex="1">
          <mxGeometry x="462.5" y="731" width="15" height="19" as="geometry" />
        </mxCell>
        <mxCell id="QagdiJctDa_fPFoG9Wk_-17" value="`D`" style="text;html=1;align=center;verticalAlign=middle;whiteSpace=wrap;rounded=0;" parent="1" vertex="1">
          <mxGeometry x="440" y="701" width="60" height="30" as="geometry" />
        </mxCell>
        <mxCell id="QagdiJctDa_fPFoG9Wk_-18" value="" style="endArrow=none;dashed=1;html=1;rounded=0;" parent="1" edge="1">
          <mxGeometry width="50" height="50" relative="1" as="geometry">
            <mxPoint x="430" y="740" as="sourcePoint" />
            <mxPoint x="650" y="740" as="targetPoint" />
          </mxGeometry>
        </mxCell>
        <mxCell id="QagdiJctDa_fPFoG9Wk_-19" value="" style="ellipse;whiteSpace=wrap;html=1;fillColor=none;" parent="1" vertex="1">
          <mxGeometry x="590" y="705.5" width="50" height="70" as="geometry" />
        </mxCell>
        <mxCell id="QagdiJctDa_fPFoG9Wk_-20" value="" style="endArrow=classic;html=1;rounded=0;entryX=0.5;entryY=0;entryDx=0;entryDy=0;" parent="1" target="QagdiJctDa_fPFoG9Wk_-19" edge="1">
          <mxGeometry width="50" height="50" relative="1" as="geometry">
            <mxPoint x="470" y="740" as="sourcePoint" />
            <mxPoint x="520" y="690" as="targetPoint" />
          </mxGeometry>
        </mxCell>
        <mxCell id="QagdiJctDa_fPFoG9Wk_-21" value="`\theta`" style="text;html=1;align=center;verticalAlign=middle;resizable=0;points=[];autosize=1;strokeColor=none;fillColor=none;" parent="1" vertex="1">
          <mxGeometry x="495" y="720" width="60" height="30" as="geometry" />
        </mxCell>
        <mxCell id="QagdiJctDa_fPFoG9Wk_-24" value="" style="shape=crossbar;whiteSpace=wrap;html=1;rounded=1;direction=south;" parent="1" vertex="1">
          <mxGeometry x="640" y="705.5" width="20" height="69" as="geometry" />
        </mxCell>
        <mxCell id="QagdiJctDa_fPFoG9Wk_-25" value="`1.22 \frac{\lambda}{d}`" style="text;html=1;align=center;verticalAlign=middle;whiteSpace=wrap;rounded=0;" parent="1" vertex="1">
          <mxGeometry x="645" y="720" width="60" height="30" as="geometry" />
        </mxCell>
        <mxCell id="QagdiJctDa_fPFoG9Wk_-29" value="" style="rounded=0;whiteSpace=wrap;html=1;fillColor=none;" parent="1" vertex="1">
          <mxGeometry x="760" y="680" width="80" height="120" as="geometry" />
        </mxCell>
        <mxCell id="QagdiJctDa_fPFoG9Wk_-30" value="" style="endArrow=none;html=1;rounded=0;" parent="1" edge="1">
          <mxGeometry width="50" height="50" relative="1" as="geometry">
            <mxPoint x="770" y="795" as="sourcePoint" />
            <mxPoint x="770" y="685" as="targetPoint" />
          </mxGeometry>
        </mxCell>
        <mxCell id="QagdiJctDa_fPFoG9Wk_-31" value="" style="endArrow=none;html=1;rounded=0;" parent="1" edge="1">
          <mxGeometry width="50" height="50" relative="1" as="geometry">
            <mxPoint x="780" y="795.5" as="sourcePoint" />
            <mxPoint x="780" y="685.5" as="targetPoint" />
          </mxGeometry>
        </mxCell>
        <mxCell id="QagdiJctDa_fPFoG9Wk_-32" value="" style="endArrow=none;html=1;rounded=0;" parent="1" edge="1">
          <mxGeometry width="50" height="50" relative="1" as="geometry">
            <mxPoint x="789.72" y="795" as="sourcePoint" />
            <mxPoint x="789.72" y="685" as="targetPoint" />
          </mxGeometry>
        </mxCell>
        <mxCell id="QagdiJctDa_fPFoG9Wk_-33" value="" style="endArrow=none;html=1;rounded=0;" parent="1" edge="1">
          <mxGeometry width="50" height="50" relative="1" as="geometry">
            <mxPoint x="799.72" y="795" as="sourcePoint" />
            <mxPoint x="799.72" y="685" as="targetPoint" />
          </mxGeometry>
        </mxCell>
        <mxCell id="QagdiJctDa_fPFoG9Wk_-34" value="" style="endArrow=none;html=1;rounded=0;" parent="1" edge="1">
          <mxGeometry width="50" height="50" relative="1" as="geometry">
            <mxPoint x="810" y="795" as="sourcePoint" />
            <mxPoint x="810" y="685" as="targetPoint" />
          </mxGeometry>
        </mxCell>
        <mxCell id="QagdiJctDa_fPFoG9Wk_-35" value="" style="endArrow=none;html=1;rounded=0;" parent="1" edge="1">
          <mxGeometry width="50" height="50" relative="1" as="geometry">
            <mxPoint x="820" y="795" as="sourcePoint" />
            <mxPoint x="820" y="685" as="targetPoint" />
          </mxGeometry>
        </mxCell>
        <mxCell id="QagdiJctDa_fPFoG9Wk_-36" value="" style="endArrow=none;html=1;rounded=0;" parent="1" edge="1">
          <mxGeometry width="50" height="50" relative="1" as="geometry">
            <mxPoint x="830" y="795" as="sourcePoint" />
            <mxPoint x="830" y="685" as="targetPoint" />
          </mxGeometry>
        </mxCell>
        <mxCell id="QagdiJctDa_fPFoG9Wk_-37" value="" style="endArrow=classic;html=1;rounded=0;" parent="1" edge="1">
          <mxGeometry width="50" height="50" relative="1" as="geometry">
            <mxPoint x="850" y="660" as="sourcePoint" />
            <mxPoint x="830" y="710" as="targetPoint" />
          </mxGeometry>
        </mxCell>
        <mxCell id="QagdiJctDa_fPFoG9Wk_-38" value="刻刀痕迹" style="text;html=1;align=center;verticalAlign=middle;whiteSpace=wrap;rounded=0;" parent="1" vertex="1">
          <mxGeometry x="820" y="640" width="60" height="30" as="geometry" />
        </mxCell>
        <mxCell id="QagdiJctDa_fPFoG9Wk_-39" value="" style="shape=flexArrow;endArrow=classic;html=1;rounded=0;endWidth=11.666666666666666;endSize=5.872222222222223;" parent="1" edge="1">
          <mxGeometry width="50" height="50" relative="1" as="geometry">
            <mxPoint x="860" y="740.22" as="sourcePoint" />
            <mxPoint x="900" y="740.22" as="targetPoint" />
          </mxGeometry>
        </mxCell>
        <mxCell id="QagdiJctDa_fPFoG9Wk_-41" value="" style="rounded=0;whiteSpace=wrap;html=1;" parent="1" vertex="1">
          <mxGeometry x="920" y="670" width="10" height="20" as="geometry" />
        </mxCell>
        <mxCell id="QagdiJctDa_fPFoG9Wk_-42" value="" style="rounded=0;whiteSpace=wrap;html=1;" parent="1" vertex="1">
          <mxGeometry x="920" y="701" width="10" height="20" as="geometry" />
        </mxCell>
        <mxCell id="QagdiJctDa_fPFoG9Wk_-43" value="" style="rounded=0;whiteSpace=wrap;html=1;" parent="1" vertex="1">
          <mxGeometry x="920" y="731" width="10" height="19" as="geometry" />
        </mxCell>
        <mxCell id="QagdiJctDa_fPFoG9Wk_-45" value="" style="rounded=0;whiteSpace=wrap;html=1;" parent="1" vertex="1">
          <mxGeometry x="920" y="760" width="10" height="19" as="geometry" />
        </mxCell>
        <mxCell id="QagdiJctDa_fPFoG9Wk_-46" value="" style="rounded=0;whiteSpace=wrap;html=1;" parent="1" vertex="1">
          <mxGeometry x="920" y="791" width="10" height="19" as="geometry" />
        </mxCell>
        <mxCell id="QagdiJctDa_fPFoG9Wk_-47" value="" style="endArrow=classic;html=1;rounded=0;" parent="1" edge="1">
          <mxGeometry width="50" height="50" relative="1" as="geometry">
            <mxPoint x="970" y="696" as="sourcePoint" />
            <mxPoint x="940" y="696" as="targetPoint" />
          </mxGeometry>
        </mxCell>
        <mxCell id="QagdiJctDa_fPFoG9Wk_-48" value="可透射部分" style="text;html=1;align=center;verticalAlign=middle;resizable=0;points=[];autosize=1;strokeColor=none;fillColor=none;" parent="1" vertex="1">
          <mxGeometry x="963" y="680" width="80" height="30" as="geometry" />
        </mxCell>
        <mxCell id="QagdiJctDa_fPFoG9Wk_-49" value="" style="endArrow=classic;html=1;rounded=0;" parent="1" edge="1">
          <mxGeometry width="50" height="50" relative="1" as="geometry">
            <mxPoint x="970" y="770" as="sourcePoint" />
            <mxPoint x="940" y="770" as="targetPoint" />
          </mxGeometry>
        </mxCell>
        <mxCell id="QagdiJctDa_fPFoG9Wk_-50" value="不可透射部分" style="text;html=1;align=center;verticalAlign=middle;resizable=0;points=[];autosize=1;strokeColor=none;fillColor=none;" parent="1" vertex="1">
          <mxGeometry x="960" y="754.5" width="100" height="30" as="geometry" />
        </mxCell>
        <mxCell id="QagdiJctDa_fPFoG9Wk_-51" value="`a`" style="text;html=1;align=center;verticalAlign=middle;whiteSpace=wrap;rounded=0;" parent="1" vertex="1">
          <mxGeometry x="880" y="710" width="60" height="30" as="geometry" />
        </mxCell>
        <mxCell id="QagdiJctDa_fPFoG9Wk_-52" value="" style="shape=crossbar;whiteSpace=wrap;html=1;rounded=1;direction=south;" parent="1" vertex="1">
          <mxGeometry x="890" y="770" width="20" height="30" as="geometry" />
        </mxCell>
        <mxCell id="QagdiJctDa_fPFoG9Wk_-53" value="`d`" style="text;html=1;align=center;verticalAlign=middle;resizable=0;points=[];autosize=1;strokeColor=none;fillColor=none;" parent="1" vertex="1">
          <mxGeometry x="860" y="770" width="40" height="30" as="geometry" />
        </mxCell>
        <mxCell id="NfzTXDgZTalH5MXcjxZ3-1" value="" style="rounded=0;whiteSpace=wrap;html=1;" parent="1" vertex="1">
          <mxGeometry x="920" y="440" width="10" height="20" as="geometry" />
        </mxCell>
        <mxCell id="NfzTXDgZTalH5MXcjxZ3-2" value="" style="rounded=0;whiteSpace=wrap;html=1;" parent="1" vertex="1">
          <mxGeometry x="920" y="471" width="10" height="20" as="geometry" />
        </mxCell>
        <mxCell id="NfzTXDgZTalH5MXcjxZ3-3" value="" style="rounded=0;whiteSpace=wrap;html=1;" parent="1" vertex="1">
          <mxGeometry x="920" y="501" width="10" height="19" as="geometry" />
        </mxCell>
        <mxCell id="NfzTXDgZTalH5MXcjxZ3-4" value="" style="rounded=0;whiteSpace=wrap;html=1;" parent="1" vertex="1">
          <mxGeometry x="920" y="530" width="10" height="19" as="geometry" />
        </mxCell>
        <mxCell id="NfzTXDgZTalH5MXcjxZ3-5" value="" style="rounded=0;whiteSpace=wrap;html=1;" parent="1" vertex="1">
          <mxGeometry x="920" y="561" width="10" height="19" as="geometry" />
        </mxCell>
        <mxCell id="NfzTXDgZTalH5MXcjxZ3-8" value="" style="endArrow=none;html=1;rounded=0;" parent="1" edge="1">
          <mxGeometry width="50" height="50" relative="1" as="geometry">
            <mxPoint x="1080" y="600" as="sourcePoint" />
            <mxPoint x="1080" y="420" as="targetPoint" />
          </mxGeometry>
        </mxCell>
        <mxCell id="NfzTXDgZTalH5MXcjxZ3-9" value="" style="endArrow=classic;html=1;rounded=0;" parent="1" edge="1">
          <mxGeometry width="50" height="50" relative="1" as="geometry">
            <mxPoint x="930" y="496" as="sourcePoint" />
            <mxPoint x="1080" y="510" as="targetPoint" />
          </mxGeometry>
        </mxCell>
        <mxCell id="NfzTXDgZTalH5MXcjxZ3-10" value="" style="endArrow=none;dashed=1;html=1;rounded=0;" parent="1" edge="1">
          <mxGeometry width="50" height="50" relative="1" as="geometry">
            <mxPoint x="880" y="496" as="sourcePoint" />
            <mxPoint x="1100" y="496" as="targetPoint" />
          </mxGeometry>
        </mxCell>
        <mxCell id="NfzTXDgZTalH5MXcjxZ3-11" value="`a`" style="text;html=1;align=center;verticalAlign=middle;whiteSpace=wrap;rounded=0;" parent="1" vertex="1">
          <mxGeometry x="880" y="509.6" width="60" height="30" as="geometry" />
        </mxCell>
        <mxCell id="NfzTXDgZTalH5MXcjxZ3-12" value="" style="endArrow=classic;html=1;rounded=0;" parent="1" edge="1">
          <mxGeometry width="50" height="50" relative="1" as="geometry">
            <mxPoint x="930" y="556" as="sourcePoint" />
            <mxPoint x="1080" y="510" as="targetPoint" />
          </mxGeometry>
        </mxCell>
        <mxCell id="NfzTXDgZTalH5MXcjxZ3-13" value="" style="endArrow=none;dashed=1;html=1;rounded=0;" parent="1" edge="1">
          <mxGeometry width="50" height="50" relative="1" as="geometry">
            <mxPoint x="930" y="560" as="sourcePoint" />
            <mxPoint x="940" y="500" as="targetPoint" />
          </mxGeometry>
        </mxCell>
        <mxCell id="NfzTXDgZTalH5MXcjxZ3-14" value="&lt;font style=&quot;font-size: 9px;&quot;&gt;`\theta`&lt;/font&gt;" style="text;html=1;align=center;verticalAlign=middle;whiteSpace=wrap;rounded=0;" parent="1" vertex="1">
          <mxGeometry x="1020" y="485" width="60" height="30" as="geometry" />
        </mxCell>
        <mxCell id="NfzTXDgZTalH5MXcjxZ3-15" value="&lt;font style=&quot;font-size: 9px;&quot;&gt;`\theta`&lt;/font&gt;" style="text;html=1;align=center;verticalAlign=middle;whiteSpace=wrap;rounded=0;" parent="1" vertex="1">
          <mxGeometry x="903" y="495.5" width="60" height="30" as="geometry" />
        </mxCell>
        <mxCell id="NfzTXDgZTalH5MXcjxZ3-17" value="" style="whiteSpace=wrap;html=1;aspect=fixed;fillColor=none;rotation=8;" parent="1" vertex="1">
          <mxGeometry x="940" y="497.5" width="5" height="5" as="geometry" />
        </mxCell>
        <mxCell id="NfzTXDgZTalH5MXcjxZ3-18" value="" style="shape=crossbar;whiteSpace=wrap;html=1;rounded=1;direction=south;fillColor=#f0a30a;fontColor=#000000;strokeColor=#BD7000;" parent="1" vertex="1">
          <mxGeometry x="952" y="496" width="20" height="59" as="geometry" />
        </mxCell>
        <mxCell id="NfzTXDgZTalH5MXcjxZ3-19" value="&lt;font style=&quot;color: light-dark(rgb(0, 0, 0), rgb(189, 112, 0));&quot;&gt;`nd`&lt;/font&gt;" style="text;html=1;align=center;verticalAlign=middle;resizable=0;points=[];autosize=1;strokeColor=none;fillColor=none;" parent="1" vertex="1">
          <mxGeometry x="952" y="507.5" width="40" height="30" as="geometry" />
        </mxCell>
        <mxCell id="NfzTXDgZTalH5MXcjxZ3-20" value="" style="endArrow=none;dashed=1;html=1;rounded=0;" parent="1" edge="1">
          <mxGeometry width="50" height="50" relative="1" as="geometry">
            <mxPoint x="880" y="555" as="sourcePoint" />
            <mxPoint x="1100.408163265306" y="555" as="targetPoint" />
          </mxGeometry>
        </mxCell>
        <mxCell id="NfzTXDgZTalH5MXcjxZ3-21" value="`n=0`" style="text;html=1;align=center;verticalAlign=middle;whiteSpace=wrap;rounded=0;" parent="1" vertex="1">
          <mxGeometry x="840" y="472.5" width="60" height="30" as="geometry" />
        </mxCell>
        <mxCell id="NfzTXDgZTalH5MXcjxZ3-22" value="`n=2`" style="text;html=1;align=center;verticalAlign=middle;whiteSpace=wrap;rounded=0;" parent="1" vertex="1">
          <mxGeometry x="840" y="530" width="60" height="30" as="geometry" />
        </mxCell>
        <mxCell id="9bVx18HNoI1L1URIB45l-2" value="" style="endArrow=classic;html=1;rounded=0;" edge="1" parent="1">
          <mxGeometry width="50" height="50" relative="1" as="geometry">
            <mxPoint x="80" y="920" as="sourcePoint" />
            <mxPoint x="120" y="840" as="targetPoint" />
          </mxGeometry>
        </mxCell>
        <mxCell id="9bVx18HNoI1L1URIB45l-3" value="" style="endArrow=classic;html=1;rounded=0;fillColor=#1ba1e2;strokeColor=#006EAF;" edge="1" parent="1">
          <mxGeometry width="50" height="50" relative="1" as="geometry">
            <mxPoint x="80" y="920" as="sourcePoint" />
            <mxPoint x="160" y="880" as="targetPoint" />
          </mxGeometry>
        </mxCell>
        <mxCell id="9bVx18HNoI1L1URIB45l-4" value="" style="endArrow=classic;html=1;rounded=0;fillColor=#fa6800;strokeColor=#C73500;" edge="1" parent="1">
          <mxGeometry width="50" height="50" relative="1" as="geometry">
            <mxPoint x="80" y="920" as="sourcePoint" />
            <mxPoint x="40" y="840" as="targetPoint" />
          </mxGeometry>
        </mxCell>
        <mxCell id="9bVx18HNoI1L1URIB45l-5" value="吸收方向" style="text;html=1;align=center;verticalAlign=middle;whiteSpace=wrap;rounded=0;" vertex="1" parent="1">
          <mxGeometry x="10" y="900" width="60" height="30" as="geometry" />
        </mxCell>
        <mxCell id="9bVx18HNoI1L1URIB45l-8" value="保留方向" style="text;html=1;align=center;verticalAlign=middle;resizable=0;points=[];autosize=1;strokeColor=none;fillColor=none;" vertex="1" parent="1">
          <mxGeometry x="85" y="910" width="70" height="30" as="geometry" />
        </mxCell>
        <mxCell id="9bVx18HNoI1L1URIB45l-9" value="`theta`" style="text;html=1;align=center;verticalAlign=middle;whiteSpace=wrap;rounded=0;" vertex="1" parent="1">
          <mxGeometry x="65" y="891" width="60" height="30" as="geometry" />
        </mxCell>
        <mxCell id="9bVx18HNoI1L1URIB45l-10" value="`\mathbf{E}`" style="text;html=1;align=center;verticalAlign=middle;whiteSpace=wrap;rounded=0;" vertex="1" parent="1">
          <mxGeometry x="105" y="827" width="60" height="30" as="geometry" />
        </mxCell>
        <mxCell id="9bVx18HNoI1L1URIB45l-11" value="" style="shape=waypoint;sketch=0;fillStyle=solid;size=6;pointerEvents=1;points=[];fillColor=none;resizable=0;rotatable=0;perimeter=centerPerimeter;snapToPoint=1;" vertex="1" parent="1">
          <mxGeometry x="750" y="230" width="20" height="20" as="geometry" />
        </mxCell>
        <mxCell id="9bVx18HNoI1L1URIB45l-12" value="" style="shape=waypoint;sketch=0;fillStyle=solid;size=6;pointerEvents=1;points=[];fillColor=none;resizable=0;rotatable=0;perimeter=centerPerimeter;snapToPoint=1;" vertex="1" parent="1">
          <mxGeometry x="790" y="230" width="20" height="20" as="geometry" />
        </mxCell>
        <mxCell id="9bVx18HNoI1L1URIB45l-13" value="" style="shape=waypoint;sketch=0;fillStyle=solid;size=6;pointerEvents=1;points=[];fillColor=none;resizable=0;rotatable=0;perimeter=centerPerimeter;snapToPoint=1;" vertex="1" parent="1">
          <mxGeometry x="830" y="230" width="20" height="20" as="geometry" />
        </mxCell>
        <mxCell id="9bVx18HNoI1L1URIB45l-14" value="" style="shape=waypoint;sketch=0;fillStyle=solid;size=6;pointerEvents=1;points=[];fillColor=none;resizable=0;rotatable=0;perimeter=centerPerimeter;snapToPoint=1;" vertex="1" parent="1">
          <mxGeometry x="870" y="230" width="20" height="20" as="geometry" />
        </mxCell>
        <mxCell id="9bVx18HNoI1L1URIB45l-15" value="" style="shape=waypoint;sketch=0;fillStyle=solid;size=6;pointerEvents=1;points=[];fillColor=none;resizable=0;rotatable=0;perimeter=centerPerimeter;snapToPoint=1;" vertex="1" parent="1">
          <mxGeometry x="910" y="230" width="20" height="20" as="geometry" />
        </mxCell>
        <mxCell id="9bVx18HNoI1L1URIB45l-16" value="" style="shape=waypoint;sketch=0;fillStyle=solid;size=6;pointerEvents=1;points=[];fillColor=none;resizable=0;rotatable=0;perimeter=centerPerimeter;snapToPoint=1;" vertex="1" parent="1">
          <mxGeometry x="750" y="270" width="20" height="20" as="geometry" />
        </mxCell>
        <mxCell id="9bVx18HNoI1L1URIB45l-17" value="" style="shape=waypoint;sketch=0;fillStyle=solid;size=6;pointerEvents=1;points=[];fillColor=none;resizable=0;rotatable=0;perimeter=centerPerimeter;snapToPoint=1;" vertex="1" parent="1">
          <mxGeometry x="790" y="270" width="20" height="20" as="geometry" />
        </mxCell>
        <mxCell id="9bVx18HNoI1L1URIB45l-18" value="" style="shape=waypoint;sketch=0;fillStyle=solid;size=6;pointerEvents=1;points=[];fillColor=none;resizable=0;rotatable=0;perimeter=centerPerimeter;snapToPoint=1;" vertex="1" parent="1">
          <mxGeometry x="830" y="270" width="20" height="20" as="geometry" />
        </mxCell>
        <mxCell id="9bVx18HNoI1L1URIB45l-19" value="" style="shape=waypoint;sketch=0;fillStyle=solid;size=6;pointerEvents=1;points=[];fillColor=none;resizable=0;rotatable=0;perimeter=centerPerimeter;snapToPoint=1;" vertex="1" parent="1">
          <mxGeometry x="870" y="270" width="20" height="20" as="geometry" />
        </mxCell>
        <mxCell id="9bVx18HNoI1L1URIB45l-20" value="" style="shape=waypoint;sketch=0;fillStyle=solid;size=6;pointerEvents=1;points=[];fillColor=none;resizable=0;rotatable=0;perimeter=centerPerimeter;snapToPoint=1;" vertex="1" parent="1">
          <mxGeometry x="910" y="270" width="20" height="20" as="geometry" />
        </mxCell>
        <mxCell id="9bVx18HNoI1L1URIB45l-21" value="" style="shape=waypoint;sketch=0;fillStyle=solid;size=6;pointerEvents=1;points=[];fillColor=none;resizable=0;rotatable=0;perimeter=centerPerimeter;snapToPoint=1;" vertex="1" parent="1">
          <mxGeometry x="750" y="310" width="20" height="20" as="geometry" />
        </mxCell>
        <mxCell id="9bVx18HNoI1L1URIB45l-22" value="" style="shape=waypoint;sketch=0;fillStyle=solid;size=6;pointerEvents=1;points=[];fillColor=none;resizable=0;rotatable=0;perimeter=centerPerimeter;snapToPoint=1;" vertex="1" parent="1">
          <mxGeometry x="790" y="310" width="20" height="20" as="geometry" />
        </mxCell>
        <mxCell id="9bVx18HNoI1L1URIB45l-23" value="" style="shape=waypoint;sketch=0;fillStyle=solid;size=6;pointerEvents=1;points=[];fillColor=none;resizable=0;rotatable=0;perimeter=centerPerimeter;snapToPoint=1;" vertex="1" parent="1">
          <mxGeometry x="830" y="310" width="20" height="20" as="geometry" />
        </mxCell>
        <mxCell id="9bVx18HNoI1L1URIB45l-24" value="" style="shape=waypoint;sketch=0;fillStyle=solid;size=6;pointerEvents=1;points=[];fillColor=none;resizable=0;rotatable=0;perimeter=centerPerimeter;snapToPoint=1;" vertex="1" parent="1">
          <mxGeometry x="870" y="310" width="20" height="20" as="geometry" />
        </mxCell>
        <mxCell id="9bVx18HNoI1L1URIB45l-25" value="" style="shape=waypoint;sketch=0;fillStyle=solid;size=6;pointerEvents=1;points=[];fillColor=none;resizable=0;rotatable=0;perimeter=centerPerimeter;snapToPoint=1;" vertex="1" parent="1">
          <mxGeometry x="910" y="310" width="20" height="20" as="geometry" />
        </mxCell>
        <mxCell id="9bVx18HNoI1L1URIB45l-27" value="" style="shape=crossbar;whiteSpace=wrap;html=1;rounded=1;direction=south;" vertex="1" parent="1">
          <mxGeometry x="725" y="240" width="20" height="40" as="geometry" />
        </mxCell>
        <mxCell id="9bVx18HNoI1L1URIB45l-28" value="`d`" style="text;html=1;align=center;verticalAlign=middle;resizable=0;points=[];autosize=1;strokeColor=none;fillColor=none;" vertex="1" parent="1">
          <mxGeometry x="705" y="245" width="40" height="30" as="geometry" />
        </mxCell>
        <mxCell id="9bVx18HNoI1L1URIB45l-29" value="" style="endArrow=classic;html=1;rounded=0;entryX=0.392;entryY=0.362;entryDx=0;entryDy=0;entryPerimeter=0;" edge="1" parent="1" target="9bVx18HNoI1L1URIB45l-13">
          <mxGeometry width="50" height="50" relative="1" as="geometry">
            <mxPoint x="760" y="210" as="sourcePoint" />
            <mxPoint x="810" y="150" as="targetPoint" />
          </mxGeometry>
        </mxCell>
        <mxCell id="9bVx18HNoI1L1URIB45l-30" value="" style="endArrow=classic;html=1;rounded=0;entryX=0.392;entryY=0.362;entryDx=0;entryDy=0;entryPerimeter=0;" edge="1" parent="1">
          <mxGeometry width="50" height="50" relative="1" as="geometry">
            <mxPoint x="760" y="250" as="sourcePoint" />
            <mxPoint x="840" y="280" as="targetPoint" />
          </mxGeometry>
        </mxCell>
        <mxCell id="9bVx18HNoI1L1URIB45l-31" value="" style="endArrow=classic;html=1;rounded=0;" edge="1" parent="1">
          <mxGeometry width="50" height="50" relative="1" as="geometry">
            <mxPoint x="840" y="240" as="sourcePoint" />
            <mxPoint x="920" y="210" as="targetPoint" />
          </mxGeometry>
        </mxCell>
        <mxCell id="9bVx18HNoI1L1URIB45l-32" value="" style="endArrow=classic;html=1;rounded=0;" edge="1" parent="1">
          <mxGeometry width="50" height="50" relative="1" as="geometry">
            <mxPoint x="840" y="280" as="sourcePoint" />
            <mxPoint x="920" y="250" as="targetPoint" />
          </mxGeometry>
        </mxCell>
        <mxCell id="9bVx18HNoI1L1URIB45l-33" value="" style="endArrow=none;dashed=1;html=1;rounded=0;" edge="1" parent="1" target="9bVx18HNoI1L1URIB45l-15">
          <mxGeometry width="50" height="50" relative="1" as="geometry">
            <mxPoint x="760" y="240" as="sourcePoint" />
            <mxPoint x="810" y="190" as="targetPoint" />
          </mxGeometry>
        </mxCell>
        <mxCell id="9bVx18HNoI1L1URIB45l-34" value="" style="endArrow=none;dashed=1;html=1;rounded=0;" edge="1" parent="1" target="9bVx18HNoI1L1URIB45l-20">
          <mxGeometry width="50" height="50" relative="1" as="geometry">
            <mxPoint x="760" y="280" as="sourcePoint" />
            <mxPoint x="810" y="230" as="targetPoint" />
          </mxGeometry>
        </mxCell>
        <mxCell id="9bVx18HNoI1L1URIB45l-35" value="" style="endArrow=none;dashed=1;html=1;rounded=0;entryX=0.444;entryY=0.349;entryDx=0;entryDy=0;entryPerimeter=0;" edge="1" parent="1" target="9bVx18HNoI1L1URIB45l-25">
          <mxGeometry width="50" height="50" relative="1" as="geometry">
            <mxPoint x="760" y="320" as="sourcePoint" />
            <mxPoint x="810" y="270" as="targetPoint" />
          </mxGeometry>
        </mxCell>
        <mxCell id="9bVx18HNoI1L1URIB45l-36" value="`\theta`" style="text;html=1;align=center;verticalAlign=middle;whiteSpace=wrap;rounded=0;" vertex="1" parent="1">
          <mxGeometry x="760" y="215" width="60" height="30" as="geometry" />
        </mxCell>
      </root>
    </mxGraphModel>
  </diagram>
</mxfile>
